<svg version="1.1" xmlns="http://www.w3.org/2000/svg" viewBox="0 0 349.76953125 162.8203125" width="699.5390625" height="325.640625">
  <!-- svg-source:excalidraw -->
  
  <defs>
    <style class="style-fonts">
      @font-face {
        font-family: "Virgil";
        src: url("https://excalidraw.com/Virgil.woff2");
      }
      @font-face {
        font-family: "Cascadia";
        src: url("https://excalidraw.com/Cascadia.woff2");
      }
      @font-face {
        font-family: "Assistant";
        src: url("https://excalidraw.com/Assistant-Regular.woff2");
      }
    </style>
    
  </defs>
  <rect x="0" y="0" width="349.76953125" height="162.8203125" fill="#ffffff"></rect><g stroke-linecap="round" transform="translate(10 10) rotate(0 164.884765625 71.41015625)"><path d="M0 0 L329.77 0 L329.77 142.82 L0 142.82" stroke="none" stroke-width="0" fill="#d0bfff"></path><path d="M0 0 C80.32 0, 160.64 0, 329.77 0 M0 0 C111.32 0, 222.63 0, 329.77 0 M329.77 0 C329.77 36.65, 329.77 73.29, 329.77 142.82 M329.77 0 C329.77 54.32, 329.77 108.64, 329.77 142.82 M329.77 142.82 C219.52 142.82, 109.27 142.82, 0 142.82 M329.77 142.82 C261.55 142.82, 193.33 142.82, 0 142.82 M0 142.82 C0 99.43, 0 56.04, 0 0 M0 142.82 C0 89.83, 0 36.83, 0 0" stroke="#1e1e1e" stroke-width="1" fill="none"></path></g><g transform="translate(132.091796875 69.91015625) rotate(0 42.79296875 11.5)"><text x="42.79296875" y="18.400390625" font-family="Helvetica, Segoe UI Emoji" font-size="20px" fill="#1e1e1e" text-anchor="middle" style="white-space: pre;" direction="ltr" dominant-baseline="alphabetic">Contracts</text></g></svg>